<svg width="295" height="209" xmlns="http://www.w3.org/2000/svg">
    <g fill="none" fill-rule="evenodd">
        <path d="M280.336 117.944l14.256 70.806a1.138 1.138 0 01-1.002 1.356 1.434 1.434 0 01-1.538-1.098l-16.635-70.581a2.201 2.201 0 011.923-2.696 2.774 2.774 0 012.996 2.213zM245.344 127.944l-14.256 70.806a1.138 1.138 0 001.002 1.356 1.434 1.434 0 001.538-1.098l16.636-70.581a2.201 2.201 0 00-1.924-2.696 2.774 2.774 0 00-2.996 2.213z"
              fill="#041F74"/>
        <path d="M244.492 62h27.539a10 10 0 019.771 7.876l10.652 49c1.174 5.396-2.25 10.723-7.647 11.896a10 10 0 01-2.124.228h-59.267a3.142 3.142 0 01-2.076-5.5l3.474-3.057a10 10 0 003.295-6.104l6.482-45.742A10 10 0 01244.492 62z"
              stroke="#041F74" stroke-width="2" fill="#CEDAF3" stroke-linejoin="round"/>
        <path d="M120.167 127.944l-14.256 70.805a1.138 1.138 0 001.002 1.357 1.434 1.434 0 001.538-1.098l16.635-70.582a2.201 2.201 0 00-1.923-2.695 2.774 2.774 0 00-2.996 2.213zM171.159 127.944l14.256 70.805a1.138 1.138 0 01-1.002 1.357 1.434 1.434 0 01-1.538-1.098l-16.636-70.582a2.201 2.201 0 011.924-2.695 2.774 2.774 0 012.996 2.213z"
              fill="#05164C"/>
        <path d="M124.224 62h36.13a10 10 0 019.77 7.876l10.653 49c1.173 5.396-2.25 10.723-7.647 11.896a10 10 0 01-2.125.228h-63.413a5 5 0 01-4.89-6.043l11.742-55.043a10 10 0 019.78-7.914z"
              stroke="#041F74" stroke-width="2" fill="#CEDAF3" stroke-linejoin="round"/>
        <path d="M85.955 180.5h12.027c1.782 6.548 8.019 10.387 15.592 9.935 1.235 1.11 1.235 2.464 0 4.065H97.092l-5.792-2.71-.89 2.71H81.5l4.455-14z"
              stroke="#041F74" fill="#041F74" stroke-linejoin="round"/>
        <path d="M118.17 180h13.925L138 190.167l-4.556 3.534-1.562-2.445-4.954 7.292c.08 1.578-1.654 2.728-5.2 3.452-3.545.724-7.449.724-11.711 0L109 197.907l1.494-1.169a20 20 0 007.674-15.72l.001-1.018h0zM183.83 180h-13.925L164 190.167l4.556 3.534 1.562-2.445 4.954 7.292 5.2 3.452h11.711l1.017-4.093-1.494-1.169a20 20 0 01-7.674-15.72l-.001-1.018h0z"
              stroke="#041F74" fill="#004DF5" stroke-linejoin="round"/>
        <path d="M64.495 191.5H77.98c1.998 7.484 8.99 11.871 17.482 11.355 1.384 1.267 1.384 2.815 0 4.645h-18.48l-6.494-3.097-.999 3.097H59.5l4.995-16z"
              stroke="#041F74" fill="#041F74" stroke-linejoin="round"/>
        <path d="M13.844 117.944L-.412 188.75a1.138 1.138 0 001.002 1.356 1.434 1.434 0 001.538-1.098l16.636-70.581a2.201 2.201 0 00-1.924-2.696 2.774 2.774 0 00-2.996 2.213zM50.836 127.944l14.256 70.806a1.138 1.138 0 01-1.002 1.356 1.434 1.434 0 01-1.538-1.098l-16.635-70.581a2.201 2.201 0 011.923-2.696 2.774 2.774 0 012.996 2.213z"
              fill="#041F74"/>
        <path d="M57.228 62H31.923a10 10 0 00-9.402 6.594l-17.754 49c-1.881 5.192.803 10.927 5.996 12.808a10 10 0 003.406.598h57.415a3.142 3.142 0 002.076-5.5l-2.874-2.529a10 10 0 01-3.393-7.469l-.165-43.54c-.02-5.508-4.492-9.962-10-9.962z"
              stroke="#041F74" stroke-width="2" fill="#CEDAF3" stroke-linejoin="round"/>
        <path d="M145 106l-1.98 7-24.059 15.559L136.588 181h-24.743l-13.817-49.327a11.013 11.013 0 01-.959-3.424L97 128h.044c-.029-.329-.044-.663-.044-1 0-3.42 1.545-6.477 3.969-8.494l-.01-.006.1-.069c.475-.386.982-.733 1.517-1.036L119.268 106H145z"
              stroke="#041F74" fill="#041F74" stroke-linejoin="round"/>
        <path d="M143 106v7l24.648 15.607L157.656 181h25.269L190 128h-.045c.03-.329.045-.663.045-1 0-3.42-1.578-6.476-4.053-8.494l.01-.006-.1-.067a11.147 11.147 0 00-1.559-1.041L167.258 106H143z"
              stroke="#041F74" fill="#041F74" stroke-linejoin="round"/>
        <path d="M176.074 174.715c-.769 3.117-.865 5.712-.288 7.784.866 3.108 1.384 2.964 4.145 7.665 1.84 3.134 1.823 8-.054 14.598h-4.81v-7.695c-4.281 1.862-6.915 3.682-7.695 7.695h-14.91c-2.662-3.947.414-6.307 1.472-6.416 4.72-.486 8.77-3.997 9.722-8.896a11.041 11.041 0 00-2.405-9.246"
              stroke="#041F74" fill="#041F74" stroke-linecap="round" stroke-linejoin="round"/>
        <path d="M204 124c5.689 0 10.49 3.8 12.003 9H217l-.638 1.639a12.6 12.6 0 01.138 1.861c0 3.934-1.817 7.443-4.658 9.735L194 192h-40l37.994-58.99c1.51-5.205 6.314-9.01 12.006-9.01z"
              stroke="#004DF5" fill="#F0F2F5" stroke-linejoin="round"/>
        <path d="M255.888 101c.167.003.335 0 .503 0 8.33 0 15.084 6.716 15.084 15 0 8.284-6.753 15-15.084 15-.168 0-.336-.003-.503-.008V131l-.177-.015c-.446-.02-.887-.059-1.323-.116l-26.185-2.305L276 166l-30.168 20-55.71-63.243A12.437 12.437 0 01186 113.5c0-6.904 5.628-12.5 12.57-12.5.168 0 .336.003.503.01V101h56.815z"
              stroke="#004DF5" fill="#F0F2F5" stroke-linejoin="round"/>
        <path d="M100.429 111.5v.014c4.777.26 8.571 4.183 8.571 8.986 0 .511-.043 1.013-.126 1.5H109l-6.555 59.5h-25.21l8.326-51.711L49 130.5v-19h51.429z"
              stroke="#041F74" fill="#004DF5" stroke-linejoin="round"/>
        <path d="M42 101c4.196 0 7.99 1.733 10.712 4.525H88.5l.001.011c5.677.256 10.234 4.839 10.488 10.547H99l-.009.058a11.097 11.097 0 01-.64 4.194L87.501 191.5h-26l12.903-62.785-30.134 2.281c-.64.098-1.292.155-1.955.168l-.314.004c-8.284 0-15-6.754-15-15.084S33.716 101 42 101z"
              stroke="#041F74" fill="#004DF5" stroke-linejoin="round"/>
        <path d="M262.442 170c.84 3.38 1.765 6.085 2.774 8.113 1.512 3.042 2.017 2.788 5.798 7.098 2.522 2.874 3.446 7.86 2.774 14.958l-5.043 1.268-1.512-7.86c-4.034 2.79-6.051 5.07-6.051 9.38L245.802 206c-3.529-3.55-.972-6.767.095-7.092a11.66 11.66 0 008.226-11.162c0-3.671-1.688-6.947-4.325-9.084"
              stroke="#041F74" fill="#041F74" stroke-linecap="round" stroke-linejoin="round"/>
        <path stroke="#004DF5" fill="#F0F2F5" stroke-linecap="round" stroke-linejoin="round"
              d="M189 121.5l56.827 64.5L276 166l-65.376-51"/>
        <g transform="translate(231 4)">
            <path d="M22.846.14c10.084 0 18.52 7.056 20.64 16.5h.09l8.462 25.385H27.075c-1.366.277-2.78.423-4.229.423-1.448 0-2.862-.146-4.229-.423H0l3.467-12.236a21.082 21.082 0 01-1.775-8.495C1.692 9.611 11.163.14 22.846.14z"
                  stroke="#041F74" fill="#004DF5" stroke-linejoin="round"/>
            <path d="M27.5 38.64c0 3.387 1.99 6.31 4.865 7.662v8.627H13.327v-8.282a6.347 6.347 0 000-12.63V32.93l16.392-.001A8.431 8.431 0 0027.5 38.64z"
                  stroke="#041F74" fill="#F1D4C5" stroke-linejoin="round"/>
            <path d="M20.308 37.794c7.01 0 12.692-5.682 12.692-12.692 0-1.242-1.988-2.106-2.538-3.596-.694-1.877-.096-4.372-1.472-5.662a12.648 12.648 0 00-8.682-3.435c-3.808 0-7.224-2.554-9.55.101C8.8 14.743 7.615 21.9 7.615 25.102c0 7.01 5.683 12.692 12.693 12.692z"
                  stroke="#041F74" fill="#F1D4C5" stroke-linejoin="round"/>
            <path d="M31.52 27.793a2.962 2.962 0 10-.366-4.172" stroke="#041F74" fill="#F1D4C5" stroke-linecap="round"
                  stroke-linejoin="round"/>
            <ellipse fill="#041F74" transform="rotate(70 22.497 23.78)" cx="22.497" cy="23.78" rx="1.058" ry="1.269"/>
            <path d="M21.365 20.236c.423-.634 3.385-1.48 5.077 0M14.173 19.179c-1.41-.846-2.75-.988-4.02-.423M15.677 25.338c.017.207-.972.73-1.088 1.088-.181.56.181 1.067 1.813 1.45M15.23 30.602c1.975.987 3.526.987 4.655 0"
                  stroke="#041F74" stroke-linecap="round" stroke-linejoin="round"/>
            <ellipse fill="#041F74" transform="rotate(-50 12.44 22.709)" cx="12.441" cy="22.709" rx="1.058" ry="1.269"/>
            <path d="M8.673 9.66c1.058 3.596 5.048 8.673 12.058 8.673s8.884 2.961 8.884 6.769c0 1.82 3.803-3.704 2.59-9.968-1.323-6.843-7.814-10.34-11.474-10.34"
                  stroke="#041F74" fill="#004DF5" stroke-linecap="round" stroke-linejoin="round"/>
        </g>
        <path d="M206 97l-3.073-8-15.878 4c-1.132 0-2.049.895-2.049 2s.917 2 2.049 2H206z" stroke="#041F74"
              fill="#F1D4C5" stroke-linejoin="round"/>
        <path d="M265 50c6.075 0 11 4.925 11 11 0 .51-.035 1.01-.102 1.5H276l-3.5 47.5-47.5-10 .867-2.5H201l-5-10h25l10-29h.112c.723-4.811 4.875-8.5 9.888-8.5.767 0 1.514.086 2.232.25h1.047a7.253 7.253 0 0012.075 3.15c1.047-1.04 3.03-2.56 5.79-3.152l.514.002c.755-.164 1.538-.25 2.342-.25z"
              stroke="#041F74" fill="#ECDB00" stroke-linejoin="round"/>
        <path d="M90.328 25.5l30.027 25.135C123.126 52.173 125 55.119 125 58.5c0 4.882-3.906 8.856-8.778 8.996l-.267.004H89.374l-17.135 38H24l3.8-10.167a8.975 8.975 0 01-2.67-11.694L35.558 54h.113c.727-4.811 4.899-8.5 9.937-8.5.169 0 .336.004.503.012V45.5l13.59.001c.304 3.814 3.51 6.814 7.421 6.814 3.91 0 7.117-3 7.42-6.814l9.255-.001v.101c.493-.066.996-.101 1.507-.101 1.939 0 3.76.496 5.344 1.368l13.928 6.236L85.303 35.5l5.025-10z"
              stroke="#041F74" fill="#929DAF" stroke-linejoin="round"/>
        <path d="M138.5 47.5l13.5 1.513 13 2.017.002.014c3.7.205 6.805 2.665 7.987 6.04l.011-.003.032.129c.171.513.298 1.047.376 1.596l3.626 15.364L195.5 53.55l8 8.069-23.869 33.1a7.473 7.473 0 01-6.131 3.207 7.473 7.473 0 01-6.139-3.217L168 106.5h-52.5l8-55.47 15-3.53z"
              stroke="#004DF5" fill="#FFF" stroke-linejoin="round"/>
        <path stroke="#004DF5" stroke-linecap="round" stroke-dasharray="1,3" d="M191.5 58.5l8 8"/>
        <path stroke="#041F74" stroke-linecap="round" stroke-linejoin="round" d="M166.5 63.5l2 43"/>
        <g transform="translate(161.5 80.5)" stroke="#041F74" stroke-linecap="round" stroke-linejoin="round">
            <path d="M14.75 4.5a4.75 4.75 0 110 9.5 4.75 4.75 0 010-9.5zm0 2.5a2.25 2.25 0 100 4.5 2.25 2.25 0 000-4.5z"
                  fill="#3DBB56"/>
            <path d="M0 1.5h13v15c0 .828-2.91 1.5-6.5 1.5S0 17.328 0 16.5h0v-15z" fill="#3DBB56"/>
            <ellipse fill="#041F74" cx="6.5" cy="1.5" rx="6.5" ry="1.5"/>
        </g>
        <path stroke="#004DF5" stroke-linecap="round" stroke-linejoin="round" d="M145.823 53.19l3.677 53.31"/>
        <path d="M144.5 97.5l3.073-8 15.878 4c1.132 0 2.049.895 2.049 2s-.917 2-2.049 2h0H144.5z" stroke="#041F74"
              fill="#866559" stroke-linejoin="round"/>
        <path d="M125 50.5c4.97 0 9 4.073 9 9.097a9.125 9.125 0 01-1.43 4.923L122.422 86.5H150.5l-4 11-31.15.001a8.946 8.946 0 01-1.85.193c-4.97 0-9-4.073-9-9.097 0-1.527.372-2.966 1.03-4.23l-.03-.007 10.815-27.156c1.039-3.863 4.534-6.704 8.685-6.704z"
              stroke="#004DF5" fill="#FFF" stroke-linejoin="round"/>
        <path stroke="#004DF5" stroke-linecap="round" stroke-dasharray="1,3" d="M143.367 86.865L139.5 97.5"/>
        <g transform="translate(122)">
            <path d="M22.5 39.5a6.987 6.987 0 015.479 2.643 3.501 3.501 0 001.255 6.273 7.002 7.002 0 01-13.59-.493 2.954 2.954 0 00.81-4.952A6.996 6.996 0 0122.5 39.5z"
                  stroke="#041F74" fill="#866559" stroke-linejoin="round"/>
            <path d="M23 53.5a6.5 6.5 0 006.461-5.788l1.793.31L32.5 52.06l-3.275 6.397L23.5 53.5l-3.913 6-6.087-7.826.507-3.652 2.512-.516A6.5 6.5 0 0023 53.5z"
                  stroke="#004DF5" fill="#FFF" stroke-linejoin="round"/>
            <path d="M21.865 44.13c-6.798 0-12.309-5.51-12.309-12.308 0-.636-.656-3.306-2.102-4.97C6.01 25.188 5.805 24.936 5.924 23c.205-3.33 2.584-5.695 5.88-7.953 3.295-2.258 6.804.362 10.06.362 3.693 0 7.006-2.477 9.262.098 1.898 2.166 3.048 13.209 3.048 16.314 0 6.798-5.511 12.309-12.31 12.309z"
                  stroke="#041F74" fill="#866559" stroke-linejoin="round"/>
            <path d="M25.69 0a3.797 3.797 0 013.797 3.814 2.742 2.742 0 014.982 2.12 2.11 2.11 0 011.636 1.346 2.742 2.742 0 012.697 4.58 2.096 2.096 0 01.346 1.641l.042-.001a2.11 2.11 0 11-.429 4.175 2.318 2.318 0 01-2.982 2.055 4.64 4.64 0 01-8.324.085 3.798 3.798 0 01-5.505-2.704 2.5 2.5 0 01-4.394-1.898l.28.072a7.75 7.75 0 00-7.186 13.302l-.224.22C9.799 28.937 9.323 29 9 29c-4.97 0-9-7.03-9-12 0-4.499 3.301-8.227 7.613-8.894-.315-2.27 1.46-4.498 4.09-5.057 1.235-.263 2.447-.112 3.452.349l-.007-.067-.005-.167a2.742 2.742 0 015.45-.44 2.11 2.11 0 011.487-.104A3.797 3.797 0 0125.69 0z"
                  fill="#041F74"/>
            <path d="M10.349 33.345a2.953 2.953 0 11.364-4.16" stroke="#041F74" fill="#866559" stroke-linecap="round"
                  stroke-linejoin="round"/>
            <path d="M25.093 29.077c.186.372.529.642.948.867.705.377 1.285.839 1.285 1.573 0 .914-.833 1.655-1.861 1.655-.748 0-1.393-.393-1.689-.959"
                  stroke="#041F74" stroke-linecap="round" stroke-linejoin="round"/>
            <ellipse fill="#041F74" cx="29.698" cy="27.187" rx="1.055" ry="1.187"/>
            <ellipse fill="#041F74" cx="19.151" cy="28.03" rx="1.055" ry="1.187"/>
            <path d="M20.318 24.242c-.984-.562-1.969-.703-2.953-.422-.815.233-1.485.803-2.01 1.71M32.108 24.387c-.6-.633-1.314-1.008-2.143-1.125-.839-.119-1.683.13-2.532.744"
                  stroke="#041F74" stroke-width="2" stroke-linecap="round" stroke-linejoin="round"/>
            <path d="M27.926 34.229a5.32 5.32 0 01-.058 1.572c-.134.67-.498 1.57-1.091 2.261-.48.56-1.104.981-1.86 1.09-3.144.448-4.528-2.385-4.528-2.385s-.188-.385-.31-.982c.289.109.584.202.88.277 2.353.588 5.12.04 6.106-.75.285-.227.583-.604.861-1.083z"
                  stroke="#041F74" fill="#FFF" stroke-linecap="round" stroke-linejoin="round"/>
        </g>
        <path stroke="#05164C" fill="#FFF" stroke-linejoin="round" d="M59 45.5l15.5.5H78L64 90.5 60 83z"/>
        <path d="M59.747 53.891c3.45 3.572 8.73 4.306 12.931 2.15" stroke="#041F74" stroke-linecap="round"
              stroke-dasharray="1,3"/>
        <path stroke="#041F74" fill="#929DAF" stroke-linejoin="round" d="M59 45.5H48l-5 1 6.5 5 12.5 39h2z"/>
        <path stroke="#041F74" fill="#929DAF" stroke-linejoin="round" d="M82 51.5l1-6h-6l-17 45h2.5l23.5-39z"/>
        <g>
            <path d="M74.398 33.248v7.923a2.877 2.877 0 00-1.234 2.364c0 .976.485 1.839 1.227 2.36a7.407 7.407 0 01-14.807-.302l.001.11a6.172 6.172 0 003.291-5.46 6.172 6.172 0 00-3.292-5.46v-1.535h14.814z"
                  stroke="#041F74" fill="#F1D4C5" stroke-linejoin="round"/>
            <g transform="translate(53 6.5)">
                <circle stroke="#041F74" fill="#041F74" stroke-linejoin="round" cx="7.407" cy="15.637" r="7.407"/>
                <circle stroke="#041F74" fill="#041F74" stroke-linejoin="round" cx="17.695" cy="9.465" r="9.465"/>
                <path d="M26.748 10.7c5.35 0 6.584 12.2 6.584 16.87 0 6.819-5.527 12.346-12.345 12.346-6.818 0-12.345-5.527-12.345-12.345 0-1.57-1.708-3.114-1.174-4.561.155-.42.345-.832.566-1.234a6.996 6.996 0 1111.922-7.327c.348-.03.692-.046 1.03-.046 2.148 0 3.087-3.704 5.762-3.704z"
                      stroke="#041F74" fill="#F1D4C5" stroke-linejoin="round"/>
                <circle stroke="#041F74" fill="#041F74" stroke-linejoin="round" cx="25.925" cy="10.288" r="7.407"/>
                <path d="M33.332 27.57c0 6.819-5.527 12.346-12.345 12.346-6.388 0-11.642-4.85-12.28-11.07l-.065-.04c2.057 1.234 5.966 4.937 7.818 2.468-.206 4.115 3.292 4.938 6.79 4.527 3.498-.412 6.378-2.675 5.967-5.761 2.402 1 4.025-.14 4.111-2.288l.004-.181h0z"
                      stroke="#041F74" fill="#041F74" stroke-linejoin="round"/>
                <path d="M9.408 27.869a2.88 2.88 0 11.355-4.058" stroke="#041F74" fill="#F1D4C5" stroke-linecap="round"
                      stroke-linejoin="round"/>
                <ellipse fill="#041F74" cx="27.982" cy="22.35" rx="1.029" ry="1.157"/>
                <ellipse fill="#041F74" cx="17.695" cy="23.173" rx="1.029" ry="1.157"/>
                <circle stroke="#041F74" stroke-linecap="round" stroke-linejoin="round" cx="17.077" cy="23.25"
                        r="3.704"/>
                <path d="M29.217 30.451c0-2.045-2.88-3.086-5.068-1.793-1.364.546-2.944.147-4.179.147-1.234 0-3.703 1.03-3.498 3.704"
                      stroke="#041F74" stroke-linecap="round" stroke-linejoin="round"/>
                <circle stroke="#041F74" stroke-linecap="round" stroke-linejoin="round" cx="27.777" cy="22.427"
                        r="3.704"/>
                <path d="M23.99 22.162a2.459 2.459 0 00-1.563-.558c-.678 0-1.292.273-1.738.716M32.509 20.164l-1.235.823"
                      stroke="#041F74" stroke-linecap="round" stroke-linejoin="round"/>
                <path d="M18.71 31.905c.765-1.2 1.314-1.142 2.018-1.028.645.104 1.46.242 2.308.123.906-.127 1.616-.396 2.142-.594.456-.17.803-.283 1.042-.285.97.872.846 1.311.59 1.783-.183.337-.473.7-.864 1.03a4.894 4.894 0 01-2.485 1.094c-1.167.164-2.26.031-3.087-.304-.962-.39-1.556-1.05-1.664-1.819z"
                      stroke="#041F74" fill="#FFF" stroke-linecap="round" stroke-linejoin="round"/>
            </g>
            <path stroke="#041F74" stroke-linecap="round" stroke-linejoin="round" d="M66.168 29.133l-4.938-.823"/>
        </g>
        <path stroke="#041F74" stroke-linecap="round" stroke-linejoin="round" d="M71 61l-16.631 44.023M225 101l13-38"/>
        <path stroke="#041F74" stroke-width="5" stroke-linecap="round" stroke-linejoin="round" d="M5.25 98.5h275.668"/>
        <path d="M67.069 100.203L47.019 205.65a1.137 1.137 0 001.003 1.344 1.385 1.385 0 001.493-1.09l22.44-105.212a2.224 2.224 0 00-1.953-2.677 2.71 2.71 0 00-2.933 2.19zM218.931 100.203l20.05 105.446a1.137 1.137 0 01-1.003 1.344 1.385 1.385 0 01-1.493-1.09l-22.44-105.212a2.224 2.224 0 011.953-2.677 2.71 2.71 0 012.933 2.19z"
              fill="#041F74"/>
        <g transform="translate(78.5 78.5)" stroke="#041F74" stroke-linecap="round" stroke-linejoin="round">
            <path d="M0 1.5h13v15c0 .828-2.91 1.5-6.5 1.5S0 17.328 0 16.5h0v-15z" fill="#3DBB56"/>
            <ellipse fill="#041F74" cx="6.5" cy="1.5" rx="6.5" ry="1.5"/>
        </g>
        <g fill="#F1D4C5" stroke="#041F74" stroke-linejoin="round">
            <path d="M66.802 88.2c3.906-2.822 6.55-4.694 7.93-5.616 1.38-.922 2.636-1.284 3.768-1.084v4c3.775 1.133 8.368 1.41 13.778.832a2 2 0 011.685 3.343l-2.93 3.186a5 5 0 01-3.036 1.574l-6.247.812a20 20 0 01-3.908.122l-13.04-.869h0l2-6.3z"/>
        </g>
        <path d="M45.731 45.5c5.582 0 10.108 4.52 10.108 10.097 0 1.624-.384 3.158-1.066 4.517l.055.027-10.379 23.223H71L65.946 97.5H33.602l-.007-.013a9.253 9.253 0 01-.498.013C28.073 97.5 24 93.431 24 88.413a9.04 9.04 0 011.136-4.4L35.98 52.928c.122-.445.274-.878.453-1.296l.201-.58.055.027a10.109 10.109 0 019.042-5.58z"
              stroke="#041F74" fill="#929DAF" stroke-linejoin="round"/>
        <path d="M221 74.85c-1.957-4.453-3.3-7.433-4.03-8.94-.558-1.156-1.446-1.966-2.664-2.43a5 5 0 00-1.782-.329h-3.364c-.839 0-1.519.68-1.519 1.52h0l4.283 1.91c-3.693-.89-7.558-2.926-11.593-6.108a2.057 2.057 0 00-3.29 2.022l.824 4.08a5 5 0 001.935 3.036l5.693 4.195a20 20 0 001.746 1.152L219.245 82h0L221 74.85z"
              stroke="#041F74" fill="#F1D4C5" stroke-linejoin="round"/>
        <path d="M264.5 50c6.351 0 11.5 5.204 11.5 11.624a11.65 11.65 0 01-3.487 8.337l-14.5 22.088C256.522 94.989 253.493 97 250 97a8.9 8.9 0 01-2.997-.516l-.003.01-.156-.069a8.905 8.905 0 01-1.03-.466L214 81.586l4.5-12.382 26.53 8.144 8.47-19.262.038.014c1.476-4.697 5.826-8.1 10.962-8.1z"
              stroke="#041F74" fill="#ECDB00" stroke-linejoin="round"/>
        <g fill="#866559" stroke="#041F74" stroke-linejoin="round">
            <path d="M202.303 46.225l6.246-11.322a1.746 1.746 0 012.31-.718 1.656 1.656 0 01.731 2.24L205.255 48.7a1.567 1.567 0 01-2.395.485 2.365 2.365 0 01-.557-2.96z"/>
            <path d="M200.86 41.935c.516 0 .987.195 1.341.517l.059-.017 9.1 9.5-8.5 9-6.5-6.5 2.5-11 .068-.02a2 2 0 011.932-1.48z"/>
            <path d="M206.018 46.96l3.037-5.554a1.74 1.74 0 012.305-.721 1.656 1.656 0 01.73 2.24l-4.068 7.882h0a2.61 2.61 0 01-2.004-3.846zM208.857 49.283l2.692-4.88a1.746 1.746 0 012.31-.718 1.677 1.677 0 01.75 2.25l-2.574 5.15a1.77 1.77 0 01-2.456.749 1.885 1.885 0 01-.722-2.55z"/>
            <path d="M196.36 54.435l2.5-11.25.285-.718a2 2 0 012.818-.247l5.362 4.5a2 2 0 11-2.571 3.064l-3.665-3.075"
                  stroke-linecap="round"/>
        </g>
    </g>
</svg>
