<?xml version="1.0" encoding="UTF-8"?>
<svg width="32px" height="32px" viewBox="0 0 32 32" version="1.1" xmlns="http://www.w3.org/2000/svg" xmlns:xlink="http://www.w3.org/1999/xlink">
    <title>sticker/updates-en-onderhoud S</title>
    <g id="sticker/updates-en-onderhoud-S" stroke="none" stroke-width="1" fill="none" fill-rule="evenodd">
        <g id="Group-3" transform="translate(0.500000, 0.500000)">
            <circle id="Oval" fill="#3DBB56" cx="15.5" cy="15.5" r="6"></circle>
            <path d="M15.25,0.25 C15.9898905,0.25 16.6401379,0.7404825 16.8434014,1.45190493 L17.2598749,2.90751491 C18.1421674,3.04722664 18.9943449,3.27743751 19.8065993,3.58833959 L20.8941214,2.53729209 C21.4258641,2.02281397 22.234236,1.92316734 22.875,2.29311259 C23.515764,2.66305784 23.8336534,3.41295183 23.6539736,4.1306935 L23.2859516,5.60068389 C23.9692574,6.15604942 24.5939506,6.78074258 25.1493161,7.46404844 L26.6193065,7.09602637 C27.3370482,6.91634655 28.0869422,7.23423603 28.4568874,7.875 C28.8268327,8.51576397 28.727186,9.32413595 28.2127079,9.85587857 L27.1616604,10.9434007 C27.4724453,11.7553488 27.7025997,12.6071899 27.842327,13.4891271 L29.2980951,13.9065986 C30.0095175,14.1098621 30.5,14.7601095 30.5,15.5 C30.5,16.2398905 30.0095175,16.8901379 29.2980951,17.0934014 L27.842327,17.5108729 C27.7025997,18.3928101 27.4724453,19.2446512 27.1616604,20.0565993 L28.2127079,21.1441214 C28.727186,21.6758641 28.8268327,22.484236 28.4568874,23.125 C28.0869422,23.765764 27.3370482,24.0836534 26.6193065,23.9039736 L25.1493161,23.5359516 C24.5939506,24.2192574 23.9692574,24.8439506 23.2859516,25.3993161 L23.6539736,26.8693065 C23.8336534,27.5870482 23.515764,28.3369422 22.875,28.7068874 C22.234236,29.0768327 21.4258641,28.977186 20.8941214,28.4627079 L19.8065993,27.4116604 C18.9946512,27.7224453 18.1428101,27.9525997 17.2608729,28.092327 L16.8434014,29.5480951 C16.6401379,30.2595175 15.9898905,30.75 15.25,30.75 C14.5101095,30.75 13.8598621,30.2595175 13.6565986,29.5480951 L13.6565986,29.5480951 L13.2401251,28.0924851 C12.3578326,27.9527734 11.5056551,27.7225625 10.6934007,27.4116604 L9.60587857,28.4627079 C9.07413595,28.977186 8.26576397,29.0768327 7.625,28.7068874 C6.98423603,28.3369422 6.66634655,27.5870482 6.84602637,26.8693065 L6.84602637,26.8693065 L7.21404844,25.3993161 C6.53074258,24.8439506 5.90604942,24.2192574 5.35068389,23.5359516 L3.8806935,23.9039736 C3.16295183,24.0836534 2.41305784,23.765764 2.04311259,23.125 C1.67316734,22.484236 1.77281397,21.6758641 2.28729209,21.1441214 L2.28729209,21.1441214 L3.33833959,20.0565993 C3.02755474,19.2446512 2.79740026,18.3928101 2.65767299,17.5108729 L1.20190493,17.0934014 C0.4904825,16.8901379 -3.55271368e-15,16.2398905 -3.55271368e-15,15.5 C-3.55271368e-15,14.7601095 0.4904825,14.1098621 1.20190493,13.9065986 L1.20190493,13.9065986 L2.65751491,13.4901251 C2.79722664,12.6078326 3.02743751,11.7556551 3.33833959,10.9434007 L2.28729209,9.85587857 C1.77281397,9.32413595 1.67316734,8.51576397 2.04311259,7.875 C2.41305784,7.23423603 3.16295183,6.91634655 3.8806935,7.09602637 L3.8806935,7.09602637 L5.35068389,7.46404844 C5.90604942,6.78074258 6.53074258,6.15604942 7.21404844,5.60068389 L6.84602637,4.1306935 C6.66634655,3.41295183 6.98423603,2.66305784 7.625,2.29311259 C8.26576397,1.92316734 9.07413595,2.02281397 9.60587857,2.53729209 L9.60587857,2.53729209 L10.6934007,3.58833959 C11.5056551,3.27743751 12.3578326,3.04722664 13.2401251,2.90751491 L13.6565986,1.45190493 C13.8598621,0.7404825 14.5101095,0.25 15.25,0.25 Z M15.5,9.5 C12.1862915,9.5 9.5,12.1862915 9.5,15.5 C9.5,18.8137085 12.1862915,21.5 15.5,21.5 C18.8137085,21.5 21.5,18.8137085 21.5,15.5 C21.5,12.1862915 18.8137085,9.5 15.5,9.5 Z" id="Combined-Shape" fill="#CEDAF3"></path>
            <path d="M15.5,0 C16.2398905,-1.3591568e-16 16.8901379,0.4904825 17.0934014,1.20190493 L17.5098749,2.65751491 C18.3921674,2.79722664 19.2443449,3.02743751 20.0565993,3.33833959 L21.1441214,2.28729209 C21.6758641,1.77281397 22.484236,1.67316734 23.125,2.04311259 C23.765764,2.41305784 24.0836534,3.16295183 23.9039736,3.8806935 L23.5359516,5.35068389 C24.2192574,5.90604942 24.8439506,6.53074258 25.3993161,7.21404844 L26.8693065,6.84602637 C27.5870482,6.66634655 28.3369422,6.98423603 28.7068874,7.625 C29.0768327,8.26576397 28.977186,9.07413595 28.4627079,9.60587857 L27.4116604,10.6934007 C27.7224453,11.5053488 27.9525997,12.3571899 28.092327,13.2391271 L29.5480951,13.6565986 C30.2595175,13.8598621 30.75,14.5101095 30.75,15.25 C30.75,15.9898905 30.2595175,16.6401379 29.5480951,16.8434014 L28.092327,17.2608729 C27.9525997,18.1428101 27.7224453,18.9946512 27.4116604,19.8065993 L28.4627079,20.8941214 C28.977186,21.4258641 29.0768327,22.234236 28.7068874,22.875 C28.3369422,23.515764 27.5870482,23.8336534 26.8693065,23.6539736 L25.3993161,23.2859516 C24.8439506,23.9692574 24.2192574,24.5939506 23.5359516,25.1493161 L23.9039736,26.6193065 C24.0836534,27.3370482 23.765764,28.0869422 23.125,28.4568874 C22.484236,28.8268327 21.6758641,28.727186 21.1441214,28.2127079 L20.0565993,27.1616604 C19.2446512,27.4724453 18.3928101,27.7025997 17.5108729,27.842327 L17.0934014,29.2980951 C16.8901379,30.0095175 16.2398905,30.5 15.5,30.5 C14.7601095,30.5 14.1098621,30.0095175 13.9065986,29.2980951 L13.9065986,29.2980951 L13.4901251,27.8424851 C12.6078326,27.7027734 11.7556551,27.4725625 10.9434007,27.1616604 L9.85587857,28.2127079 C9.32413595,28.727186 8.51576397,28.8268327 7.875,28.4568874 C7.23423603,28.0869422 6.91634655,27.3370482 7.09602637,26.6193065 L7.09602637,26.6193065 L7.46404844,25.1493161 C6.78074258,24.5939506 6.15604942,23.9692574 5.60068389,23.2859516 L4.1306935,23.6539736 C3.41295183,23.8336534 2.66305784,23.515764 2.29311259,22.875 C1.92316734,22.234236 2.02281397,21.4258641 2.53729209,20.8941214 L2.53729209,20.8941214 L3.58833959,19.8065993 C3.27743751,18.9943449 3.04722664,18.1421674 2.90751491,17.2598749 L1.45190493,16.8434014 C0.7404825,16.6401379 0.25,15.9898905 0.25,15.25 C0.25,14.5101095 0.7404825,13.8598621 1.45190493,13.6565986 L1.45190493,13.6565986 L2.90751491,13.2401251 C3.04722664,12.3578326 3.27743751,11.5056551 3.58833959,10.6934007 L2.53729209,9.60587857 C2.02281397,9.07413595 1.92316734,8.26576397 2.29311259,7.625 C2.66305784,6.98423603 3.41295183,6.66634655 4.1306935,6.84602637 L4.1306935,6.84602637 L5.60068389,7.21404844 C6.15604942,6.53074258 6.78074258,5.90604942 7.46404844,5.35068389 L7.09602637,3.8806935 C6.91634655,3.16295183 7.23423603,2.41305784 7.875,2.04311259 C8.51576397,1.67316734 9.32413595,1.77281397 9.85587857,2.28729209 L9.85587857,2.28729209 L10.9434007,3.33833959 C11.7556551,3.02743751 12.6078326,2.79722664 13.4901251,2.65751491 L13.9065986,1.20190493 C14.1098621,0.4904825 14.7601095,1.3591568e-16 15.5,0 Z" id="Combined-Shape" stroke="#041F74" stroke-width="2" stroke-linejoin="round"></path>
            <circle id="Oval" stroke="#F9FAFF" stroke-width="2" stroke-linejoin="round" cx="15.5" cy="15.5" r="9.5"></circle>
            <g id="Group-2" transform="translate(7.000000, 9.500000)" stroke="#041F74" stroke-linecap="round" stroke-width="2">
                <g id="Group" transform="translate(2.570394, 0.000000)">
                    <polyline id="Line-3" transform="translate(11.506283, 3.626325) rotate(63.000000) translate(-11.506283, -3.626325) " points="10.2586817 1.13118114 12.7538852 3.62638464 10.2588006 6.12146917"></polyline>
                    <path d="M11.835951,4.26117982 C11.0086989,1.78488641 8.67115691,0 5.9167522,0 C3.16505802,0 0.829406481,1.78137523 0,4.2538713" id="Oval" stroke-linejoin="round"></path>
                </g>
                <g id="Group-Copy" transform="translate(0.000000, 5.988373)">
                    <polyline id="Line-3" transform="translate(2.789589, 2.244393) rotate(243.000000) translate(-2.789589, -2.244393) " points="1.54198719 -0.250751039 4.03719069 2.24445246 1.54210616 4.739537"></polyline>
                    <path d="M14.4040748,6.01162724 C13.5768227,3.53533383 11.2392807,1.75044742 8.48487595,1.75044742 C5.73318177,1.75044742 3.39753022,3.53182265 2.56812374,6.00431872" id="Oval" stroke-linejoin="round" transform="translate(8.486099, 3.881037) scale(1, -1) translate(-8.486099, -3.881037) "></path>
                </g>
            </g>
        </g>
    </g>
</svg>